<svg width="21" height="21" viewBox="0 0 21 21" fill="none" xmlns="http://www.w3.org/2000/svg">
<g clip-path="url(#clip0_1_598)">
<path d="M10.2818 2.45196C12.8909 2.45196 13.1972 2.46359 14.2284 2.51011C15.1821 2.55275 15.6977 2.7117 16.0427 2.84739C16.5002 3.02572 16.8258 3.23507 17.167 3.57622C17.5081 3.91738 17.7214 4.24303 17.8958 4.70049C18.0276 5.04553 18.1905 5.56114 18.2331 6.51483C18.2796 7.54605 18.2913 7.85232 18.2913 10.4614C18.2913 13.0705 18.2796 13.3767 18.2331 14.408C18.1905 15.3617 18.0315 15.8773 17.8958 16.2223C17.7175 16.6798 17.5081 17.0054 17.167 17.3466C16.8258 17.6877 16.5002 17.901 16.0427 18.0754C15.6977 18.2072 15.1821 18.37 14.2284 18.4127C13.1972 18.4592 12.8909 18.4708 10.2818 18.4708C7.67273 18.4708 7.36646 18.4592 6.33524 18.4127C5.38155 18.37 4.86593 18.2111 4.5209 18.0754C4.06344 17.8971 3.73779 17.6877 3.39663 17.3466C3.05547 17.0054 2.84225 16.6798 2.66779 16.2223C2.53598 15.8773 2.37316 15.3617 2.33051 14.408C2.28399 13.3767 2.27236 13.0705 2.27236 10.4614C2.27236 7.85232 2.28399 7.54605 2.33051 6.51483C2.37316 5.56114 2.53211 5.04553 2.66779 4.70049C2.84613 4.24303 3.05547 3.91738 3.39663 3.57622C3.73779 3.23507 4.06344 3.02184 4.5209 2.84739C4.86593 2.71558 5.38155 2.55275 6.33524 2.51011C7.36646 2.45971 7.67661 2.45196 10.2818 2.45196ZM10.2818 0.691895C7.63008 0.691895 7.29668 0.703525 6.25382 0.750046C5.21484 0.796568 4.50539 0.96327 3.88511 1.20363C3.24156 1.45174 2.69881 1.78903 2.15606 2.33178C1.61331 2.87453 1.2799 3.42115 1.02791 4.06082C0.78755 4.68111 0.620848 5.39056 0.574326 6.43342C0.527805 7.4724 0.516174 7.8058 0.516174 10.4575C0.516174 13.1092 0.527805 13.4426 0.574326 14.4855C0.620848 15.5245 0.78755 16.2339 1.02791 16.8581C1.27603 17.5016 1.61331 18.0444 2.15606 18.5871C2.69881 19.1299 3.24543 19.4633 3.88511 19.7153C4.50539 19.9557 5.21484 20.1224 6.2577 20.1689C7.30056 20.2154 7.63008 20.227 10.2857 20.227C12.9413 20.227 13.2708 20.2154 14.3137 20.1689C15.3526 20.1224 16.0621 19.9557 16.6863 19.7153C17.3298 19.4672 17.8726 19.1299 18.4153 18.5871C18.9581 18.0444 19.2915 17.4978 19.5435 16.8581C19.7838 16.2378 19.9505 15.5284 19.997 14.4855C20.0436 13.4426 20.0552 13.1131 20.0552 10.4575C20.0552 7.80192 20.0436 7.4724 19.997 6.42954C19.9505 5.39056 19.7838 4.68111 19.5435 4.05695C19.2953 3.4134 18.9581 2.87065 18.4153 2.3279C17.8726 1.78515 17.3259 1.45174 16.6863 1.19975C16.066 0.959393 15.3565 0.792691 14.3137 0.74617C13.2669 0.703525 12.9335 0.691895 10.2818 0.691895Z" fill="black"/>
<path d="M10.2818 2.45196C12.8909 2.45196 13.1972 2.46359 14.2284 2.51011C15.1821 2.55275 15.6977 2.7117 16.0427 2.84739C16.5002 3.02572 16.8258 3.23507 17.167 3.57622C17.5081 3.91738 17.7214 4.24303 17.8958 4.70049C18.0276 5.04553 18.1905 5.56114 18.2331 6.51483C18.2796 7.54605 18.2913 7.85232 18.2913 10.4614C18.2913 13.0705 18.2796 13.3767 18.2331 14.408C18.1905 15.3617 18.0315 15.8773 17.8958 16.2223C17.7175 16.6798 17.5081 17.0054 17.167 17.3466C16.8258 17.6877 16.5002 17.901 16.0427 18.0754C15.6977 18.2072 15.1821 18.37 14.2284 18.4127C13.1972 18.4592 12.8909 18.4708 10.2818 18.4708C7.67273 18.4708 7.36646 18.4592 6.33524 18.4127C5.38155 18.37 4.86593 18.2111 4.5209 18.0754C4.06344 17.8971 3.73779 17.6877 3.39663 17.3466C3.05547 17.0054 2.84225 16.6798 2.66779 16.2223C2.53598 15.8773 2.37316 15.3617 2.33051 14.408C2.28399 13.3767 2.27236 13.0705 2.27236 10.4614C2.27236 7.85232 2.28399 7.54605 2.33051 6.51483C2.37316 5.56114 2.53211 5.04553 2.66779 4.70049C2.84613 4.24303 3.05547 3.91738 3.39663 3.57622C3.73779 3.23507 4.06344 3.02184 4.5209 2.84739C4.86593 2.71558 5.38155 2.55275 6.33524 2.51011C7.36646 2.45971 7.67661 2.45196 10.2818 2.45196Z" fill="black"/>
<path d="M10.2818 5.44482C7.51373 5.44482 5.2652 7.68948 5.2652 10.4614C5.2652 13.2333 7.50986 15.4779 10.2818 15.4779C13.0537 15.4779 15.2983 13.2333 15.2983 10.4614C15.2983 7.68948 13.0537 5.44482 10.2818 5.44482ZM10.2818 13.714C8.48293 13.714 7.02526 12.2563 7.02526 10.4575C7.02526 8.65868 8.48293 7.20101 10.2818 7.20101C12.0806 7.20101 13.5383 8.65868 13.5383 10.4575C13.5383 12.2563 12.0806 13.714 10.2818 13.714Z" fill="#B9A695"/>
<path d="M15.496 6.41385C16.1427 6.41385 16.6668 5.88966 16.6668 5.24306C16.6668 4.59645 16.1427 4.07227 15.496 4.07227C14.8494 4.07227 14.3253 4.59645 14.3253 5.24306C14.3253 5.88966 14.8494 6.41385 15.496 6.41385Z" fill="#B9A695"/>
</g>
<defs>
<clipPath id="clip0_1_598">
<rect width="19.5313" height="19.5313" fill="white" transform="translate(0.516174 0.691895)"/>
</clipPath>
</defs>
</svg>
